<mxfile host="app.diagrams.net" agent="Mozilla/5.0 (Windows NT 10.0; Win64; x64) AppleWebKit/537.36 (KHTML, like Gecko) Chrome/131.0.0.0 Safari/537.36" version="25.0.3">
  <diagram name="Page-1" id="syHW0LzpEWk02tJZAOca">
    <mxGraphModel dx="1434" dy="746" grid="1" gridSize="10" guides="1" tooltips="1" connect="1" arrows="1" fold="1" page="1" pageScale="1" pageWidth="850" pageHeight="1100" math="0" shadow="0">
      <root>
        <mxCell id="0" />
        <mxCell id="1" parent="0" />
        <mxCell id="tZ56AdQukhlJAo0M_mUN-7" style="edgeStyle=orthogonalEdgeStyle;rounded=0;orthogonalLoop=1;jettySize=auto;html=1;entryX=0.5;entryY=0;entryDx=0;entryDy=0;" edge="1" parent="1" source="tZ56AdQukhlJAo0M_mUN-1" target="tZ56AdQukhlJAo0M_mUN-3">
          <mxGeometry relative="1" as="geometry" />
        </mxCell>
        <mxCell id="tZ56AdQukhlJAo0M_mUN-1" value="&lt;font style=&quot;font-size: 24px;&quot;&gt;start&lt;/font&gt;" style="strokeWidth=2;html=1;shape=mxgraph.flowchart.start_1;whiteSpace=wrap;" vertex="1" parent="1">
          <mxGeometry x="375" y="40" width="100" height="60" as="geometry" />
        </mxCell>
        <mxCell id="tZ56AdQukhlJAo0M_mUN-2" value="&lt;font style=&quot;font-size: 24px;&quot;&gt;end&lt;/font&gt;" style="strokeWidth=2;html=1;shape=mxgraph.flowchart.start_1;whiteSpace=wrap;" vertex="1" parent="1">
          <mxGeometry x="375" y="510" width="100" height="60" as="geometry" />
        </mxCell>
        <mxCell id="tZ56AdQukhlJAo0M_mUN-8" style="edgeStyle=orthogonalEdgeStyle;rounded=0;orthogonalLoop=1;jettySize=auto;html=1;entryX=0.5;entryY=0;entryDx=0;entryDy=0;" edge="1" parent="1" source="tZ56AdQukhlJAo0M_mUN-3" target="tZ56AdQukhlJAo0M_mUN-4">
          <mxGeometry relative="1" as="geometry" />
        </mxCell>
        <mxCell id="tZ56AdQukhlJAo0M_mUN-3" value="input number" style="shape=parallelogram;perimeter=parallelogramPerimeter;whiteSpace=wrap;html=1;fixedSize=1;" vertex="1" parent="1">
          <mxGeometry x="288" y="160" width="275" height="50" as="geometry" />
        </mxCell>
        <mxCell id="tZ56AdQukhlJAo0M_mUN-9" style="edgeStyle=orthogonalEdgeStyle;rounded=0;orthogonalLoop=1;jettySize=auto;html=1;exitX=0;exitY=0.5;exitDx=0;exitDy=0;entryX=0.5;entryY=0;entryDx=0;entryDy=0;" edge="1" parent="1" source="tZ56AdQukhlJAo0M_mUN-4" target="tZ56AdQukhlJAo0M_mUN-5">
          <mxGeometry relative="1" as="geometry" />
        </mxCell>
        <mxCell id="tZ56AdQukhlJAo0M_mUN-10" style="edgeStyle=orthogonalEdgeStyle;rounded=0;orthogonalLoop=1;jettySize=auto;html=1;entryX=0.5;entryY=0;entryDx=0;entryDy=0;" edge="1" parent="1" source="tZ56AdQukhlJAo0M_mUN-4" target="tZ56AdQukhlJAo0M_mUN-6">
          <mxGeometry relative="1" as="geometry" />
        </mxCell>
        <mxCell id="tZ56AdQukhlJAo0M_mUN-4" value="if (number % 2 == 0" style="rhombus;whiteSpace=wrap;html=1;" vertex="1" parent="1">
          <mxGeometry x="354" y="270" width="142" height="70" as="geometry" />
        </mxCell>
        <mxCell id="tZ56AdQukhlJAo0M_mUN-5" value="output&lt;br&gt;number, &quot;is an even integer&quot;" style="shape=parallelogram;perimeter=parallelogramPerimeter;whiteSpace=wrap;html=1;fixedSize=1;" vertex="1" parent="1">
          <mxGeometry x="162" y="370" width="192" height="40" as="geometry" />
        </mxCell>
        <mxCell id="tZ56AdQukhlJAo0M_mUN-6" value="output&lt;br&gt;number, &quot;is an odd integer&quot;" style="shape=parallelogram;perimeter=parallelogramPerimeter;whiteSpace=wrap;html=1;fixedSize=1;" vertex="1" parent="1">
          <mxGeometry x="510" y="370" width="192" height="40" as="geometry" />
        </mxCell>
        <mxCell id="tZ56AdQukhlJAo0M_mUN-11" style="edgeStyle=orthogonalEdgeStyle;rounded=0;orthogonalLoop=1;jettySize=auto;html=1;entryX=0.5;entryY=0;entryDx=0;entryDy=0;entryPerimeter=0;" edge="1" parent="1" source="tZ56AdQukhlJAo0M_mUN-6" target="tZ56AdQukhlJAo0M_mUN-2">
          <mxGeometry relative="1" as="geometry" />
        </mxCell>
        <mxCell id="tZ56AdQukhlJAo0M_mUN-12" style="edgeStyle=orthogonalEdgeStyle;rounded=0;orthogonalLoop=1;jettySize=auto;html=1;entryX=0.5;entryY=0;entryDx=0;entryDy=0;entryPerimeter=0;" edge="1" parent="1" source="tZ56AdQukhlJAo0M_mUN-5" target="tZ56AdQukhlJAo0M_mUN-2">
          <mxGeometry relative="1" as="geometry" />
        </mxCell>
      </root>
    </mxGraphModel>
  </diagram>
</mxfile>
